M48
METRIC,TZ
T1C0.400
T2C0.700
T3C1.000
T4C1.100
%
G90
G05
T1
X78994Y-74168
X83566Y-74930
X83566Y-75946
X84074Y-71374
X84582Y-76708
X87376Y-76962
X88646Y-75692
T4
X96520Y-72898
X99060Y-72898
X101600Y-72898
T2
G00X76428Y-80339
M15
G01X76428Y-78639
M16
G05
G00X92228Y-80339
M15
G01X92228Y-78639
M16
G05
T3
G00X78478Y-71920
M15
G01X78478Y-70320
M16
G05
G00X90178Y-71920
M15
G01X90178Y-70320
M16
G05
G00X97611Y-79852
M15
G01X99611Y-79852
M16
G05
G00X97611Y-85852
M15
G01X99611Y-85852
M16
G05
G00X103311Y-83852
M15
G01X103311Y-81852
M16
G05
T0
M30
