G04 #@! TF.GenerationSoftware,KiCad,Pcbnew,(6.0.8)*
G04 #@! TF.CreationDate,2022-12-10T17:07:18-08:00*
G04 #@! TF.ProjectId,usb_power2,7573625f-706f-4776-9572-322e6b696361,rev?*
G04 #@! TF.SameCoordinates,Original*
G04 #@! TF.FileFunction,Legend,Top*
G04 #@! TF.FilePolarity,Positive*
%FSLAX46Y46*%
G04 Gerber Fmt 4.6, Leading zero omitted, Abs format (unit mm)*
G04 Created by KiCad (PCBNEW (6.0.8)) date 2022-12-10 17:07:18*
%MOMM*%
%LPD*%
G01*
G04 APERTURE LIST*
%ADD10C,0.150000*%
G04 #@! TA.AperFunction,Profile*
%ADD11C,0.100000*%
G04 #@! TD*
%ADD12C,0.120000*%
%ADD13C,0.127000*%
%ADD14C,0.200000*%
G04 APERTURE END LIST*
D10*
X88646000Y-76962000D02*
G75*
G03*
X88646000Y-76962000I-254000J0D01*
G01*
X101854000Y-70866000D02*
G75*
G03*
X101854000Y-70866000I-254000J0D01*
G01*
X97536000Y-78486000D02*
G75*
G03*
X97536000Y-78486000I-254000J0D01*
G01*
D11*
X77470000Y-80000000D02*
X91070000Y-80000000D01*
X91070000Y-80000000D02*
X91070000Y-89663000D01*
X91070000Y-89663000D02*
X77470000Y-89663000D01*
X77470000Y-89663000D02*
X77470000Y-80000000D01*
G36*
X77470000Y-80000000D02*
G01*
X91070000Y-80000000D01*
X91070000Y-89663000D01*
X77470000Y-89663000D01*
X77470000Y-80000000D01*
G37*
X105664000Y-89662000D02*
X74168000Y-89662000D01*
X74168000Y-89662000D02*
X74168000Y-68326000D01*
X74168000Y-68326000D02*
X105664000Y-68326000D01*
X105664000Y-68326000D02*
X105664000Y-89662000D01*
D12*
G04 #@! TO.C,J3*
X77050900Y-81403088D02*
X77050900Y-82056560D01*
X77050900Y-93865701D02*
X91605100Y-93865701D01*
X91605100Y-82056560D02*
X91605100Y-81403088D01*
X79647744Y-79362300D02*
X77660741Y-79362300D01*
X91605100Y-93865701D02*
X91605100Y-84922040D01*
X77050900Y-84922040D02*
X77050900Y-93865701D01*
X90995259Y-79362300D02*
X89008256Y-79362300D01*
G04 #@! TO.C,U1*
X93940000Y-76168000D02*
X93940000Y-71527000D01*
X104180000Y-76168000D02*
X93940000Y-76168000D01*
X100910000Y-76168000D02*
X100910000Y-74658000D01*
X104180000Y-74658000D02*
X93940000Y-74658000D01*
X104180000Y-76168000D02*
X104180000Y-71527000D01*
X97209000Y-76168000D02*
X97209000Y-74658000D01*
X104180000Y-71527000D02*
X93940000Y-71527000D01*
D13*
G04 #@! TO.C,J1*
X78328000Y-68420000D02*
X78328000Y-69120000D01*
X90328000Y-69120000D02*
X90328000Y-68420000D01*
X90328000Y-68420000D02*
X78328000Y-68420000D01*
D14*
X81428000Y-75220000D02*
G75*
G03*
X81428000Y-75220000I-100000J0D01*
G01*
D12*
G04 #@! TO.C,J2*
X94010500Y-93652000D02*
X94010500Y-78952000D01*
X94860500Y-78752000D02*
X93810500Y-78752000D01*
X103210500Y-84852000D02*
X103210500Y-93652000D01*
X93810500Y-79802000D02*
X93810500Y-78752000D01*
X103210500Y-78952000D02*
X103210500Y-80852000D01*
X94010500Y-78952000D02*
X96610500Y-78952000D01*
X103210500Y-93652000D02*
X94010500Y-93652000D01*
X100510500Y-78952000D02*
X103210500Y-78952000D01*
G04 #@! TD*
M02*
